<?xml version="1.0" encoding="UTF-8"?>
<svg width="207px" height="201px" viewBox="0 0 207 201" version="1.1" xmlns="http://www.w3.org/2000/svg" xmlns:xlink="http://www.w3.org/1999/xlink">
    <!-- Generator: Sketch 49 (51002) - http://www.bohemiancoding.com/sketch -->
    <title>logo</title>
    <desc>Created with Sketch.</desc>
    <defs></defs>
    <g id="Page-1" stroke="none" stroke-width="1" fill="none" fill-rule="evenodd">
        <g id="1-splash" transform="translate(-85.000000, -238.000000)" fill="#FFFFFF">
            <g id="logo" transform="translate(72.000000, 238.000000)">
                <path d="M19.4,163.688 L19.4,171.896 L25.256,171.896 C28.28,171.896 29.528,170.168 29.528,167.768 C29.528,165.272 28.28,163.688 25.256,163.688 L19.4,163.688 Z M19.4,176.6 L19.4,186.008 L26.12,186.008 C29.528,186.008 30.872,184.184 30.872,181.304 C30.872,178.376 29.288,176.6 26.12,176.6 L19.4,176.6 Z M26.12,191 L16.616,191 C15.08,191 13.832,189.752 13.832,188.216 L13.832,161.48 C13.832,159.944 15.08,158.696 16.616,158.696 L25.256,158.696 C32.504,158.696 35.096,162.632 35.096,167.048 C35.096,170.216 33.512,172.616 31.544,173.576 C35.144,174.968 36.536,177.56 36.536,181.304 C36.536,187.16 33.032,191 26.12,191 Z M42.968,168.824 C44.408,168.824 45.56,169.976 45.56,171.416 L45.56,182.6 C45.56,184.808 46.328,186.92 49.88,186.92 C53.384,186.92 54.152,184.808 54.152,182.6 L54.152,171.416 C54.152,169.976 55.304,168.824 56.744,168.824 C58.184,168.824 59.336,169.976 59.336,171.416 L59.336,182.6 C59.336,187.304 57.56,191.624 49.88,191.624 C42.152,191.624 40.376,187.304 40.376,182.6 L40.376,171.416 C40.376,169.976 41.528,168.824 42.968,168.824 Z M77.912,182.024 L77.912,175.4 C77.912,175.4 76.04,172.952 73.16,172.952 C69.896,172.952 68.024,175.352 68.024,180.104 C68.024,184.808 69.848,187.208 73.16,187.208 C75.944,187.208 77.912,185.336 77.912,182.024 Z M72.632,168.536 C74.936,168.536 76.952,169.496 77.912,170.456 L77.912,159.416 C77.912,157.976 79.064,156.824 80.504,156.824 C81.944,156.824 83.096,157.976 83.096,159.416 L83.096,182.024 C83.096,188.408 78.968,191.624 73.16,191.624 C66.68,191.624 62.888,187.928 62.888,180.104 C62.888,172.28 66.584,168.536 72.632,168.536 Z M101.192,182.024 L101.192,175.4 C101.192,175.4 99.32,172.952 96.44,172.952 C93.176,172.952 91.304,175.352 91.304,180.104 C91.304,184.808 93.128,187.208 96.44,187.208 C99.224,187.208 101.192,185.336 101.192,182.024 Z M95.912,168.536 C98.216,168.536 100.232,169.496 101.192,170.456 L101.192,159.416 C101.192,157.976 102.344,156.824 103.784,156.824 C105.224,156.824 106.376,157.976 106.376,159.416 L106.376,182.024 C106.376,188.408 102.248,191.624 96.44,191.624 C89.96,191.624 86.168,187.928 86.168,180.104 C86.168,172.28 89.864,168.536 95.912,168.536 Z M110.36,195.848 C113.432,195.848 114.872,193.4 116.456,189.464 L109.064,172.424 C108.968,172.184 108.872,171.848 108.872,171.416 C108.872,169.976 110.024,168.824 111.464,168.824 C112.904,168.824 113.624,169.832 113.864,170.456 L119.144,183.8 L124.424,170.456 C124.664,169.832 125.384,168.824 126.824,168.824 C128.264,168.824 129.416,169.976 129.416,171.416 C129.416,171.848 129.32,172.184 129.224,172.424 L120.296,192.584 C118.184,197.288 115.16,200.648 110.36,200.648 C108.968,200.648 107.864,199.64 107.864,198.248 C107.864,196.856 108.968,195.848 110.36,195.848 Z M146.648,191.672 C137.096,191.672 131.624,186.632 131.624,174.872 C131.624,163.496 137.096,158.024 146.648,158.024 C152.456,158.024 156.248,160.328 158.216,163.208 C158.6,163.784 158.744,164.264 158.744,164.792 C158.744,166.184 157.592,167.336 156.152,167.336 C155.48,167.336 154.808,167.048 154.184,166.376 C152.216,164.216 150.152,163.016 146.648,163.016 C140.264,163.016 137.384,166.952 137.384,174.872 C137.384,183.272 140.264,186.68 146.648,186.68 C150.2,186.68 152.12,185.864 154.424,183.512 C155.192,182.744 155.816,182.456 156.488,182.456 C157.928,182.456 159.08,183.608 159.08,185.048 C159.08,185.624 158.888,186.104 158.6,186.488 C156.296,189.56 151.784,191.672 146.648,191.672 Z M171.704,173.144 C169.592,173.144 168.104,174.104 166.904,174.968 C166.424,175.304 166.04,175.448 165.464,175.448 C164.216,175.448 163.208,174.44 163.208,173.192 C163.208,172.664 163.4,172.088 163.832,171.608 C165.176,170.12 167.576,168.536 171.704,168.536 C177.656,168.536 181.208,171.464 181.208,176.552 L181.208,188.84 C181.208,190.232 180.056,191.384 178.664,191.384 C177.272,191.384 176.12,190.232 176.12,188.84 C174.824,190.904 172.712,191.624 169.832,191.624 C165.128,191.624 162.008,188.696 162.008,184.376 C162.008,179.912 165.608,177.608 169.784,177.608 L176.072,177.608 L176.072,176.744 C176.072,174.584 174.488,173.144 171.704,173.144 Z M171.176,187.304 C173.72,187.304 176.072,185.672 176.072,182.984 L176.072,181.64 L170.456,181.64 C168.344,181.64 167.192,182.648 167.192,184.376 C167.192,186.2 168.488,187.304 171.176,187.304 Z M190.952,171.416 L190.952,171.656 C191.864,169.784 194.12,168.584 196.136,168.584 C197.48,168.584 198.584,169.688 198.584,171.032 C198.584,172.376 197.48,173.48 196.136,173.48 C192.824,173.48 190.952,175.592 190.952,178.808 L190.952,188.792 C190.952,190.232 189.8,191.384 188.36,191.384 C186.92,191.384 185.768,190.232 185.768,188.792 L185.768,171.416 C185.768,169.976 186.92,168.824 188.36,168.824 C189.8,168.824 190.952,169.976 190.952,171.416 Z M199.88,180.008 C199.88,172.664 203.72,168.536 210.248,168.536 C218.36,168.536 219.848,174.776 219.848,178.088 C219.848,179.864 219.848,181.928 216.92,181.928 L205.064,181.928 C205.064,185.384 207.512,186.968 210.68,186.968 C212.792,186.968 214.28,186.248 215.432,185.48 C215.96,185.144 216.344,184.952 216.968,184.952 C218.216,184.952 219.224,185.96 219.224,187.208 C219.224,187.976 218.84,188.6 218.408,188.984 C217.592,189.752 215.048,191.624 210.68,191.624 C204.008,191.624 199.88,188.024 199.88,180.008 Z M210.248,172.952 C207.464,172.952 205.448,174.536 205.208,177.608 L214.712,177.608 C214.712,175.256 213.368,172.952 210.248,172.952 Z" id="BuddyCare"></path>
                <path d="M161.441429,101.327143 L119.818571,125.357143 L119.818571,94.3457143 L118.49,95.01 C117.577143,95.3528571 116.63,95.5285714 115.717143,95.5285714 C114.817143,95.5285714 113.9,95.3571429 112.978571,95.0228571 L112.755714,94.9928571 L112.035714,94.6585714 L111.611429,94.4442857 L111.611429,125.357143 L69.9885714,101.327143 L69.9885714,73.4871429 L61.7857143,69.36 L61.7857143,103.697143 C61.7857143,105.162857 62.57,106.517143 63.8385714,107.245714 L113.664286,136.02 C114.294286,136.384286 115.005714,136.568571 115.717143,136.568571 C116.428571,136.568571 117.135714,136.388571 117.77,136.02 L167.591429,107.245714 C168.864286,106.517143 169.644286,105.162857 169.644286,103.697143 L169.644286,69.3514286 L161.441429,73.4614286 L161.441429,101.327143 Z" id="Shape" fill-rule="nonzero"></path>
                <path d="M118.682857,19.11 L116.994286,18.5571429 C116.167143,18.2871429 115.267143,18.2871429 114.431429,18.5571429 L112.747143,19.11 C113.844286,21.63 114.838571,24.1542857 115.708571,26.5542857 C116.587143,24.1542857 117.59,21.63 118.682857,19.11 Z" id="Shape" fill-rule="nonzero"></path>
                <path d="M175.374286,40.6071429 C175.374286,40.5814286 175.382857,40.5557143 175.382857,40.5257143 C175.378571,40.44 175.34,40.3585714 175.331429,40.2728571 C175.301429,39.9985714 175.25,39.7285714 175.168571,39.4671429 C175.125714,39.3385714 175.078571,39.2185714 175.027143,39.0985714 C174.928571,38.8671429 174.808571,38.6528571 174.671429,38.4471429 C174.59,38.3357143 174.525714,38.2242857 174.435714,38.1214286 C174.272857,37.92 174.084286,37.7485714 173.878571,37.5771429 C173.788571,37.5 173.702857,37.41 173.604286,37.3414286 C173.578571,37.3285714 173.565714,37.3028571 173.54,37.2857143 C173.244286,37.0885714 172.922857,36.9385714 172.588571,36.8271429 C172.58,36.8271429 172.571429,36.8185714 172.562857,36.8142857 L162.251429,33.4242857 C161.775714,33.9514286 161.295714,34.4528571 160.845714,34.9071429 C156.131429,39.6214286 148.177143,43.5471429 140.797143,46.4657143 L149.578571,50.0314286 L149.578571,70.26 L137.407143,76.3971429 L137.407143,55.2642857 L123.47,47.8971429 C127.07,46.9285714 149.265714,40.6885714 157.94,32.0057143 C160.477143,29.4771429 163.815714,25.5557143 163.597143,20.7214286 C163.382857,15.9 160.014286,13.0757143 157.305714,10.8085714 C156.53,10.1614286 155.707143,9.47571429 154.914286,8.69571429 C154.13,7.91142857 153.448571,7.08428571 152.797143,6.30428571 C150.568571,3.64714286 147.53,0.00428571429 142.442857,0.00428571429 C137.797143,0.00428571429 134.03,3.23571429 131.604286,5.66571429 C122.908571,14.3614286 116.672857,36.5957143 115.708571,40.1614286 C114.748571,36.6085714 108.508571,14.3614286 99.8085714,5.66571429 C97.3828571,3.23142857 93.6157143,0 88.9742857,0 C83.8871429,0 80.8442857,3.64285714 78.6157143,6.3 C77.9685714,7.07571429 77.2871429,7.90285714 76.5028571,8.68714286 C75.7185714,9.47142857 74.8871429,10.1528571 74.1157143,10.8042857 C71.4028571,13.0757143 68.0342857,15.8957143 67.82,20.7214286 C67.6057143,25.5514286 70.9442857,29.4771429 73.4771429,32.0057143 C82.1557143,40.6928571 104.377143,46.9328571 107.96,47.8971429 L94.0142857,55.2642857 L94.0142857,76.3971429 L81.8428571,70.26 L81.8428571,50.0314286 L90.6328571,46.4614286 C83.2442857,43.5385714 75.2814286,39.6128571 70.5757143,34.9028571 C70.1257143,34.4528571 69.65,33.9471429 69.17,33.42 L58.8628571,36.81 C58.8542857,36.81 58.8457143,36.8185714 58.8371429,36.8185714 C58.5114286,36.93 58.19,37.0842857 57.8857143,37.2814286 C57.86,37.2942857 57.8471429,37.32 57.8214286,37.3371429 C57.7185714,37.41 57.6371429,37.4957143 57.5428571,37.5728571 C57.3414286,37.7442857 57.1528571,37.9157143 56.99,38.1128571 C56.9,38.2157143 56.8314286,38.3271429 56.7542857,38.4428571 C56.6171429,38.6485714 56.4971429,38.8671429 56.3985714,39.0942857 C56.3471429,39.2185714 56.2957143,39.3385714 56.2571429,39.4671429 C56.1714286,39.7285714 56.1242857,39.9942857 56.0985714,40.2728571 C56.0857143,40.3585714 56.0471429,40.4357143 56.0428571,40.5257143 C56.0428571,40.5514286 56.0514286,40.5771429 56.0514286,40.6071429 C56.0514286,40.6414286 56.0385714,40.6757143 56.0385714,40.71 L56.0385714,59.3442857 C56.0385714,60.8957143 56.9128571,62.31 58.2928571,63.0042857 L113.861429,90.9857143 C113.921429,91.0157143 113.981429,91.0028571 114.045714,91.0285714 C114.572857,91.2642857 115.134286,91.4228571 115.708571,91.4228571 C116.282857,91.4228571 116.844286,91.2642857 117.371429,91.0285714 C117.44,91.0028571 117.495714,91.0157143 117.555714,90.9857143 L173.128571,63.0042857 C174.504286,62.3057143 175.378571,60.8914286 175.378571,59.3442857 L175.378571,40.71 C175.387143,40.68 175.374286,40.6414286 175.374286,40.6071429 Z M135.962857,10.02 C143.968571,2.01428571 145.704286,8.17285714 150.581429,13.0457143 C155.45,17.9185714 161.604286,19.6542857 153.598571,27.66 C145.597143,35.6657143 121.584286,42.0385714 121.584286,42.0385714 C121.584286,42.0385714 127.952857,18.0257143 135.962857,10.02 Z M80.8528571,13.0414286 C85.7257143,8.17285714 87.4614286,2.01428571 95.4671429,10.02 C103.477143,18.03 109.845714,42.0385714 109.845714,42.0385714 C109.845714,42.0385714 85.8328571,35.67 77.8271429,27.6642857 C69.8214286,19.6585714 75.9842857,17.9185714 80.8528571,13.0414286 Z" id="Shape" fill-rule="nonzero"></path>
            </g>
        </g>
    </g>
</svg>